<svg viewBox="0 0 11 10" fill="none" xmlns="http://www.w3.org/2000/svg">
    <path d="M3.06909 8.75C2.88381 8.75 2.72534 8.68403 2.59367 8.55208C2.462 8.42014 2.39603 8.26194 2.39575 8.0775V4.42333C2.39575 4.23833 2.46172 4.08 2.59367 3.94833C2.72561 3.81667 2.88395 3.75056 3.06867 3.75H3.64575V2.91667C3.64575 2.4525 3.80756 2.05875 4.13117 1.73542C4.4545 1.41181 4.84825 1.25 5.31242 1.25C5.77659 1.25 6.17047 1.41181 6.49409 1.73542C6.8177 2.05903 6.97936 2.45278 6.97909 2.91667V3.75H7.55617C7.74117 3.75 7.8995 3.81597 8.03117 3.94792C8.16284 4.07986 8.22881 4.23819 8.22909 4.42292V8.07708C8.22909 8.26208 8.16311 8.42042 8.03117 8.55208C7.89922 8.68375 7.74089 8.74972 7.55617 8.75H3.06909ZM5.31242 6.875C5.48825 6.875 5.63631 6.81472 5.75659 6.69417C5.87714 6.57389 5.93742 6.42583 5.93742 6.25C5.93742 6.07417 5.87714 5.92611 5.75659 5.80583C5.63603 5.68556 5.48797 5.62528 5.31242 5.625C5.13686 5.62472 4.98881 5.685 4.86825 5.80583C4.7477 5.92611 4.68742 6.07417 4.68742 6.25C4.68742 6.42583 4.7477 6.57389 4.86825 6.69417C4.98853 6.81472 5.13659 6.875 5.31242 6.875ZM4.06242 3.75H6.56242V2.91667C6.56242 2.56944 6.44089 2.27431 6.19784 2.03125C5.95478 1.78819 5.65964 1.66667 5.31242 1.66667C4.9652 1.66667 4.67006 1.78819 4.427 2.03125C4.18395 2.27431 4.06242 2.56944 4.06242 2.91667V3.75Z" fill="black"/>
</svg>