<svg width="10" height="7" viewBox="0 0 10 7" xmlns="http://www.w3.org/2000/svg">
    <path d="M6.20805 6.51055C6.17177 6.47428 6.14299 6.43121 6.12335 6.38381C6.10371 6.33641 6.0936 6.28561 6.0936 6.2343C6.0936 6.183 6.10371 6.13219 6.12335 6.08479C6.14299 6.03739 6.17177 5.99433 6.20805 5.95805L7.72868 4.43743H4.76555C2.65149 4.43743 0.937428 2.72336 0.937428 0.609303V0.453053C0.937428 0.349452 0.978582 0.250095 1.05184 0.176838C1.12509 0.103582 1.22445 0.0624275 1.32805 0.0624275C1.43165 0.0624275 1.53101 0.103582 1.60427 0.176838C1.67752 0.250095 1.71868 0.349452 1.71868 0.453053V0.609303C1.71868 1.00942 1.79749 1.40563 1.95061 1.77529C2.10373 2.14495 2.32816 2.48084 2.61109 2.76377C2.89401 3.0467 3.2299 3.27113 3.59956 3.42425C3.96923 3.57737 4.36543 3.65618 4.76555 3.65618L7.72868 3.65618L6.20805 2.13555C6.13479 2.06229 6.09363 1.96292 6.09363 1.8593C6.09363 1.75569 6.13479 1.65632 6.20805 1.58305C6.28132 1.50979 6.38069 1.46863 6.4843 1.46863C6.58792 1.46863 6.68729 1.50979 6.76055 1.58305L8.94805 3.77055C8.98434 3.80683 9.01312 3.84989 9.03276 3.89729C9.05239 3.94469 9.0625 3.9955 9.0625 4.0468C9.0625 4.09811 9.05239 4.14891 9.03276 4.19631C9.01312 4.24371 8.98434 4.28678 8.94805 4.32305L6.76055 6.51055C6.72428 6.54684 6.68121 6.57562 6.63381 6.59526C6.58641 6.61489 6.53561 6.625 6.4843 6.625C6.433 6.625 6.38219 6.61489 6.33479 6.59526C6.28739 6.57562 6.24433 6.54684 6.20805 6.51055Z"/>
</svg>